<?xml version="1.0" encoding="utf-8"?>
<!-- Svg Vector Icons : http://www.onlinewebfonts.com/icon -->
<!DOCTYPE svg PUBLIC "-//W3C//DTD SVG 1.1//EN" "http://www.w3.org/Graphics/SVG/1.1/DTD/svg11.dtd">
<svg version="1.1" xmlns="http://www.w3.org/2000/svg" xmlns:xlink="http://www.w3.org/1999/xlink" x="0px" y="0px" viewBox="0 0 1000 1000" enable-background="new 0 0 1000 1000" xml:space="preserve">
<metadata> Svg Vector Icons : http://www.onlinewebfonts.com/icon </metadata>
<g><path d="M929,500.1v398.7c0,33.8-27.4,61.3-61.2,61.3H133c-33.8,0-61.3-27.4-61.3-61.3V500.1H10V316.7c0-33.8,27.4-61.2,61.3-61.2h106.3c-27.6-26.7-45.4-61.7-45.4-104.8c0-53.1,30.5-110.7,116-110.7c112.5,0,209.4,119.8,253.6,187C546,159.9,640,40,752.6,40c85.5,0,116,57.6,116,110.7c0,43.1-17.3,78.1-44.4,104.8h104.6c33.8,0,61.3,27.4,61.3,61.2v183.3H929z M867.7,500.1H530.6v398.7h337.1V500.1z M248.2,101.3c-37.9,0-54.8,15-54.8,48.5c0,68,78.8,105.7,150.2,105.7h103.7C403.9,190.8,324.4,101.3,248.2,101.3z M469.4,316.7H71.3v122.1h398.1V316.7z M133,500.1v398.7h336.3V500.1H133z M752.6,101.3c-76.2,0-152.8,89.5-196.3,154.2H660c71.4,0,147.4-36.7,147.4-104.7C807.3,117.2,790.4,101.3,752.6,101.3z M928.8,316.7H530.6v122.1h398.1V316.7z"/></g>
</svg>